<?xml version="1.0" standalone="no"?>
<!DOCTYPE svg PUBLIC "-//W3C//DTD SVG 20010904//EN"
 "http://www.w3.org/TR/2001/REC-SVG-20010904/DTD/svg10.dtd">
<svg version="1.0" xmlns="http://www.w3.org/2000/svg"
 width="4096.000000pt" height="1537.000000pt" viewBox="0 0 4096.000000 1537.000000"
 preserveAspectRatio="xMidYMid meet">

<g transform="translate(0.000000,1537.000000) scale(0.100000,-0.100000)"
fill="#000000" stroke="none">
<path d="M6321 13552 c-74 -1 -140 -7 -146 -12 -7 -6 -15 -45 -19 -88 -11
-136 -7 -9485 5 -9497 12 -12 1928 -14 17326 -18 6100 -1 11095 2 11099 6 11
11 11 8517 0 9115 l-9 492 -76 0 c-2590 2 -28089 4 -28180 2z m5017 -452
l4563 0 24 -25 25 -24 0 -4278 c0 -2572 -4 -4294 -10 -4318 -5 -22 -16 -45
-25 -51 -13 -9 -443 -12 -1823 -13 -994 0 -3072 0 -4617 -1 -1546 0 -2825 2
-2843 6 -17 4 -34 14 -37 23 -2 9 -3 430 -1 936 3 506 5 2428 6 4270 1 1843 5
3370 10 3393 4 24 14 50 22 58 16 17 93 34 123 28 11 -2 2073 -4 4583 -4z
m22830 -2 c10 -2 13 -827 13 -4322 l1 -4319 -31 -31 -31 -31 -4523 0 c-2487 0
-4544 3 -4572 5 -76 7 -77 13 -77 318 1 2779 15 8339 22 8357 7 18 18 24 47
27 46 4 9133 -1 9151 -4z m-15265 -357 c9 -9 10 -2090 0 -2778 l-6 -493 1590
0 c1343 0 1592 2 1602 14 9 10 11 428 11 1640 0 1301 2 1626 12 1626 7 1 355
0 772 0 535 -1 764 -4 773 -12 11 -9 13 -691 13 -3912 0 -2145 -3 -3931 -7
-3968 l-6 -68 -778 0 -778 0 0 1513 c0 831 4 1557 9 1612 l8 100 -34 33 -34
32 -677 0 c-781 0 -2348 -18 -2441 -28 l-64 -7 -4 -795 c-6 -1263 -14 -2474
-17 -2483 -3 -9 -1474 -30 -1488 -21 -11 6 -6 7985 5 8002 6 10 1528 3 1539
-7z"/>
<path d="M7713 12760 c-13 -5 -23 -17 -23 -27 0 -10 1 -1681 1 -3713 1 -2032
1 -3828 -1 -3990 l-2 -295 631 -3 c452 -2 637 0 652 8 19 11 20 19 18 143 -1
73 -6 154 -10 180 -5 27 -9 1460 -9 3184 0 2719 1 3138 14 3152 8 9 18 30 22
46 4 17 11 36 17 43 7 9 223 12 1019 12 1126 0 1012 6 1343 -71 416 -98 639
-180 885 -327 41 -25 89 -51 108 -59 54 -23 191 -116 267 -183 39 -33 96 -82
128 -107 100 -81 405 -464 504 -632 30 -53 78 -134 106 -181 116 -194 189
-386 223 -584 36 -215 57 -468 58 -716 0 -205 -2 -238 -27 -365 -50 -263 -86
-373 -180 -550 -111 -211 -186 -336 -315 -525 -178 -261 -418 -481 -769 -706
-271 -173 -651 -329 -962 -393 -57 -12 -141 -31 -188 -41 -196 -46 -374 -60
-769 -60 l-372 0 -15 -37 c-9 -21 -39 -92 -67 -158 -28 -66 -110 -262 -182
-435 -242 -585 -263 -648 -222 -664 26 -10 1220 -7 1531 4 316 11 391 20 713
91 670 148 1009 291 1414 596 208 157 363 293 526 459 177 181 256 271 381
434 139 182 341 490 359 548 4 15 35 86 68 157 135 291 273 713 322 980 101
550 86 1295 -35 1745 -18 69 -37 143 -41 164 -4 22 -18 67 -31 100 -43 106
-123 308 -152 386 -77 203 -227 470 -416 740 -227 327 -359 463 -760 786 -106
85 -247 193 -274 209 -9 5 -39 24 -67 41 -94 59 -299 171 -465 255 -369 185
-800 303 -1299 355 -102 11 -3632 14 -3657 4z"/>
<path d="M27013 12760 c-12 -5 -25 -19 -27 -32 -3 -13 -8 -1357 -11 -2988 -3
-1631 -8 -3426 -11 -3990 -5 -937 -5 -1027 10 -1039 13 -11 139 -15 645 -19
l628 -5 6 344 c4 189 9 814 12 1389 8 1553 9 1586 28 1608 16 18 68 19 1170
25 633 4 1299 10 1480 14 l327 6 0 690 0 690 -222 -8 c-123 -5 -784 -9 -1470
-9 l-1247 -1 -28 21 -28 21 -1 379 c-5 1640 -6 1612 22 1635 9 7 566 10 1946
10 1063 -1 1947 3 1963 7 l30 8 6 615 c4 390 2 619 -4 627 -8 10 -534 12
-2606 11 -1486 0 -2605 -4 -2618 -9z"/>
<path d="M5467 2760 c-308 -55 -472 -443 -317 -751 153 -302 587 -316 734 -24
32 62 30 77 -14 100 -38 19 -44 16 -74 -43 -49 -95 -123 -142 -223 -142 -105
1 -186 60 -240 175 -27 57 -28 67 -28 205 1 128 3 152 24 204 43 108 127 175
221 176 92 0 162 -67 201 -193 29 -90 34 -97 74 -97 56 0 59 11 49 203 l-9
172 -36 3 c-24 2 -42 -3 -53 -13 -15 -15 -20 -15 -74 3 -69 24 -170 34 -235
22z"/>
<path d="M9931 2759 c-168 -29 -310 -167 -356 -346 -20 -76 -19 -234 1 -304
68 -230 268 -366 487 -330 132 22 236 99 292 217 14 29 25 55 25 58 0 6 -74
46 -84 46 -3 0 -15 -19 -27 -42 -36 -71 -68 -106 -122 -133 -104 -51 -232 -21
-303 73 -96 125 -111 358 -33 519 45 93 118 143 208 143 97 0 184 -99 216
-248 7 -35 36 -49 80 -38 l25 6 0 173 c0 121 -4 177 -12 185 -17 17 -68 15
-89 -3 -15 -15 -22 -14 -75 4 -74 25 -163 32 -233 20z"/>
<path d="M14840 2760 c-212 -40 -360 -197 -392 -417 -41 -281 128 -523 394
-564 91 -15 227 5 340 49 l73 27 3 130 c2 118 4 132 23 148 12 9 34 17 49 17
36 0 52 21 48 62 l-3 33 -220 0 -220 0 -3 -33 c-5 -45 10 -59 68 -64 76 -8 80
-15 80 -130 l0 -99 -37 -17 c-57 -24 -167 -22 -219 5 -44 23 -104 85 -128 130
-27 52 -46 150 -46 232 0 234 95 379 254 389 112 7 179 -50 234 -198 l28 -75
44 0 45 0 3 169 c2 116 -1 173 -9 182 -16 19 -68 18 -90 -2 -16 -15 -22 -14
-76 4 -69 24 -180 34 -243 22z"/>
<path d="M21710 2759 c-140 -23 -275 -124 -338 -251 -40 -82 -54 -144 -54
-249 -1 -219 109 -383 307 -459 114 -44 330 -24 465 43 l45 22 -4 121 c-3 113
-2 123 18 143 12 12 33 21 49 21 43 0 54 13 50 56 l-3 39 -214 3 c-230 3 -231
2 -231 -49 0 -33 17 -49 56 -49 17 0 45 -5 63 -11 l31 -11 0 -104 0 -105 -37
-17 c-57 -24 -167 -22 -219 5 -150 80 -214 328 -144 556 49 159 202 240 330
175 59 -31 97 -81 130 -175 l28 -78 43 0 44 0 3 169 c2 116 -1 173 -9 182 -17
21 -77 18 -91 -5 -11 -18 -12 -18 -52 0 -41 18 -152 40 -191 38 -11 -1 -45 -5
-75 -10z"/>
<path d="M22892 2752 c-59 -21 -113 -68 -137 -118 -9 -18 -15 -59 -15 -96 0
-63 16 -102 73 -189 l18 -26 -51 -39 c-112 -85 -156 -210 -118 -336 16 -55 78
-121 136 -146 115 -50 224 -36 328 41 l58 42 44 -47 45 -48 131 0 c72 0 137 4
144 9 8 5 12 22 10 46 l-3 38 -71 17 c-73 17 -109 37 -156 87 l-27 28 67 133
c37 74 76 138 87 144 10 6 39 16 64 23 46 11 46 11 46 56 l0 44 -179 3 c-192
3 -206 -1 -206 -47 0 -37 9 -46 63 -61 43 -12 47 -15 47 -44 0 -28 -52 -156
-64 -156 -3 0 -46 48 -95 107 l-89 107 37 26 c130 95 165 233 85 338 -55 71
-173 99 -272 64z m153 -117 c20 -19 25 -34 25 -75 0 -57 -15 -93 -54 -129 -21
-19 -28 -22 -40 -12 -24 20 -66 112 -66 144 0 83 81 127 135 72z m-99 -460
c27 -34 76 -94 109 -134 l59 -73 -23 -19 c-13 -10 -41 -24 -64 -30 -118 -32
-210 64 -194 202 6 49 42 123 57 117 4 -2 29 -30 56 -63z"/>
<path d="M27111 2759 c-76 -15 -168 -65 -227 -123 -149 -150 -184 -400 -85
-612 80 -171 281 -277 467 -246 226 37 377 214 391 457 9 163 -38 298 -141
401 -109 109 -254 153 -405 123z m185 -123 c97 -45 144 -146 151 -329 11 -257
-64 -402 -219 -423 -89 -12 -185 41 -229 128 -65 127 -65 389 0 516 60 117
182 161 297 108z"/>
<path d="M31661 2759 c-225 -44 -388 -278 -366 -527 21 -247 167 -417 390
-454 166 -28 352 56 444 201 57 89 74 153 75 286 1 169 -29 256 -128 363 -105
112 -260 162 -415 131z m195 -125 c51 -27 95 -86 120 -160 27 -83 28 -324 1
-403 -37 -111 -105 -174 -198 -187 -90 -12 -185 40 -230 128 -64 126 -65 390
-1 514 25 49 76 98 122 119 46 20 134 15 186 -11z"/>
<path d="M35363 2759 c-144 -28 -273 -140 -334 -290 -17 -42 -23 -81 -27 -174
-4 -110 -2 -127 22 -198 45 -135 117 -222 230 -277 261 -129 566 17 641 307
19 74 19 213 0 288 -64 245 -291 392 -532 344z m211 -136 c89 -62 130 -174
130 -353 1 -232 -81 -371 -227 -387 -143 -16 -244 95 -270 297 -28 223 44 419
169 466 60 22 148 12 198 -23z"/>
<path d="M38149 2757 c-105 -30 -186 -103 -210 -191 -18 -66 -6 -160 27 -213
39 -62 99 -101 244 -159 132 -52 161 -75 182 -145 10 -33 9 -48 -3 -82 -21
-59 -57 -82 -132 -82 -121 0 -195 73 -251 248 -5 15 -15 18 -53 15 l-48 -3 4
-165 c2 -91 8 -171 13 -177 17 -21 75 -16 91 8 13 17 18 19 37 9 84 -45 233
-53 326 -19 72 27 140 89 170 154 35 75 34 175 -4 246 -37 70 -96 111 -250
173 -143 58 -182 90 -189 159 -6 53 7 81 50 107 65 40 165 12 212 -58 15 -22
37 -71 49 -109 l23 -68 43 -3 c24 -2 46 2 50 8 11 18 -1 324 -14 332 -19 13
-64 9 -81 -8 -15 -15 -20 -15 -70 4 -71 27 -158 35 -216 19z"/>
<path d="M7370 2578 c-204 -524 -243 -619 -261 -642 -12 -15 -41 -32 -67 -39
-44 -13 -47 -16 -50 -52 -2 -24 2 -41 10 -46 7 -5 90 -9 184 -9 190 0 198 3
192 61 -3 31 -6 33 -65 47 -44 9 -63 18 -63 29 0 22 30 124 47 156 l14 28 136
-3 136 -3 33 -85 c45 -116 45 -117 -18 -127 -51 -8 -53 -10 -56 -41 -6 -64
-20 -62 416 -62 272 1 400 4 409 11 14 12 17 57 5 75 -4 6 -30 17 -59 23 -89
22 -88 16 -91 309 -2 141 -1 254 1 252 2 -3 109 -147 236 -320 128 -173 243
-324 256 -336 18 -17 31 -20 61 -15 l39 6 5 402 c6 453 0 425 86 447 47 12 49
14 52 51 2 24 -2 41 -10 46 -7 5 -98 9 -201 9 -198 0 -194 1 -201 -47 -5 -31
12 -50 50 -57 62 -12 84 -27 95 -65 6 -22 9 -120 7 -246 l-3 -209 -210 284
c-115 156 -220 297 -233 312 l-24 28 -133 0 c-147 0 -159 -5 -153 -60 3 -28 8
-33 58 -50 30 -10 65 -30 77 -45 23 -26 23 -29 23 -328 0 -220 -4 -309 -13
-326 -8 -18 -28 -30 -68 -41 -48 -15 -61 -15 -100 -4 -25 8 -53 22 -62 31 -8
10 -84 196 -168 413 -83 217 -156 401 -162 408 -5 6 -27 12 -48 12 l-38 0 -71
-182z m170 -365 c0 -2 -43 -3 -95 -3 -52 0 -95 4 -95 8 0 5 17 53 38 108 21
54 42 108 46 119 6 16 19 -8 57 -104 27 -69 49 -126 49 -128z"/>
<path d="M10806 2752 c-2 -4 -70 -175 -149 -379 -80 -204 -153 -387 -162 -406
-19 -41 -46 -61 -95 -72 -39 -8 -50 -20 -50 -52 0 -48 19 -53 200 -53 140 0
171 3 184 16 29 28 17 84 -18 84 -11 0 -38 5 -60 11 -38 11 -38 11 -33 53 3
23 16 67 28 99 l22 57 137 0 138 0 10 -27 c26 -65 62 -166 62 -173 0 -4 -24
-11 -52 -16 -53 -9 -53 -9 -56 -48 -2 -24 2 -42 10 -47 17 -11 379 -11 396 0
8 5 12 23 10 47 -3 35 -6 39 -40 47 -21 5 -47 19 -59 31 -11 12 -91 204 -177
426 l-157 405 -42 3 c-22 2 -44 -1 -47 -6z m52 -410 c23 -59 42 -113 42 -120
0 -9 -25 -12 -90 -12 -62 0 -90 4 -90 12 0 17 82 228 89 228 3 0 25 -49 49
-108z"/>
<path d="M24274 2588 c-193 -498 -246 -628 -265 -652 -12 -15 -40 -32 -67 -39
-44 -13 -47 -16 -50 -52 -2 -24 2 -41 10 -46 7 -5 90 -9 184 -9 190 0 198 3
192 61 -3 31 -6 33 -65 47 -75 16 -75 19 -35 132 l27 75 140 0 139 0 33 -85
c43 -115 43 -115 -19 -126 -51 -9 -53 -11 -56 -42 -6 -60 0 -62 213 -62 213 0
219 2 213 61 -3 29 -8 33 -49 45 -25 8 -53 22 -61 31 -9 10 -84 196 -168 413
-84 217 -157 401 -162 408 -6 6 -28 12 -48 12 l-38 0 -68 -172z m120 -251 c25
-65 46 -121 46 -123 0 -2 -43 -4 -95 -4 -52 0 -95 3 -95 7 0 12 92 245 95 241
2 -2 24 -56 49 -121z"/>
<path d="M29361 2738 c-224 -577 -305 -778 -320 -798 -10 -14 -40 -32 -67 -42
-46 -15 -49 -18 -52 -53 -2 -24 2 -41 10 -46 21 -14 352 -11 366 3 26 26 11
88 -22 88 -11 0 -38 5 -58 11 -47 12 -48 25 -12 132 l26 78 140 -3 140 -3 34
-90 c19 -49 34 -95 34 -101 0 -6 -24 -15 -52 -20 -53 -9 -53 -9 -56 -48 -2
-24 2 -42 10 -47 22 -14 392 -11 406 3 13 13 16 57 4 75 -4 6 -24 14 -44 18
-20 4 -46 17 -58 30 -12 13 -89 197 -171 410 -83 214 -154 396 -160 406 -7 14
-21 19 -50 19 -32 0 -41 -4 -48 -22z m57 -394 c23 -58 42 -112 42 -120 0 -11
-18 -14 -90 -14 -49 0 -90 3 -90 8 -1 14 85 232 91 232 3 0 24 -47 47 -106z"/>
<path d="M2949 2723 c-16 -42 2 -70 49 -78 23 -4 50 -17 63 -31 24 -25 24 -29
27 -277 4 -270 -2 -385 -22 -412 -6 -9 -36 -22 -66 -28 -54 -12 -55 -13 -58
-51 -2 -24 2 -42 10 -47 7 -5 97 -9 201 -9 l187 0 11 27 c17 44 -1 69 -61 83
-84 20 -85 21 -87 325 -1 143 0 256 3 250 3 -5 60 -156 127 -335 l122 -325 31
-3 c17 -2 35 3 41 10 5 7 68 159 139 338 l129 325 3 -273 c1 -157 -2 -280 -7
-290 -6 -11 -31 -21 -68 -27 l-58 -10 -3 -39 c-2 -24 2 -42 10 -47 22 -14 412
-11 426 3 13 13 16 57 4 74 -4 6 -26 15 -50 19 -75 12 -72 -3 -72 371 0 202 4
343 10 354 6 11 26 21 52 25 24 4 49 12 56 17 15 13 16 60 0 76 -13 13 -305
17 -323 4 -6 -4 -16 -28 -23 -54 -6 -26 -58 -165 -114 -309 -71 -182 -104
-255 -109 -243 -61 164 -221 580 -229 595 -10 18 -22 19 -176 19 l-164 0 -11
-27z"/>
<path d="M4222 2741 c-8 -5 -12 -22 -10 -46 3 -37 5 -39 53 -51 27 -7 55 -21
62 -30 16 -22 19 -670 3 -694 -5 -8 -33 -20 -62 -25 -52 -10 -53 -11 -56 -49
-2 -24 2 -42 10 -47 7 -5 182 -9 389 -9 302 0 379 3 388 13 6 8 12 71 13 158
l3 144 -37 3 c-37 3 -37 3 -77 -75 -69 -133 -59 -127 -208 -131 -177 -5 -168
-14 -168 180 l0 153 70 -3 c84 -3 100 -15 117 -90 14 -56 29 -67 79 -60 l24 3
3 194 c3 209 2 211 -49 211 -32 0 -42 -12 -58 -68 -19 -69 -39 -82 -121 -82
l-70 0 0 150 0 150 119 0 119 0 32 -31 c17 -17 42 -54 56 -81 24 -48 26 -49
67 -46 l42 3 3 119 c2 78 -1 123 -9 132 -9 11 -75 14 -363 14 -193 0 -357 -4
-364 -9z"/>
<path d="M5992 2741 c-8 -5 -12 -22 -10 -46 3 -35 6 -39 46 -50 77 -23 72 1
72 -379 0 -187 -4 -346 -8 -353 -4 -6 -30 -16 -57 -20 -49 -8 -50 -9 -53 -47
-2 -24 2 -42 10 -47 15 -10 368 -12 392 -3 20 8 22 82 4 89 -7 2 -32 9 -55 15
l-43 11 0 159 0 160 185 0 185 0 0 -154 c0 -172 0 -172 -71 -184 -42 -7 -44
-9 -47 -46 -2 -24 2 -42 10 -47 17 -11 379 -11 396 0 8 5 12 22 10 46 -3 37
-5 39 -52 51 -27 7 -53 19 -57 26 -5 7 -9 164 -9 349 0 253 3 339 13 351 6 9
32 20 57 25 44 8 45 9 48 50 4 55 5 54 -228 51 l-185 -3 0 -44 c0 -44 0 -44
47 -58 27 -7 52 -22 58 -33 6 -12 9 -70 8 -142 l-3 -123 -183 -3 -183 -2 3
147 3 148 50 10 c49 11 50 12 53 49 2 24 -2 42 -10 47 -7 5 -96 9 -198 9 -102
0 -191 -4 -198 -9z"/>
<path d="M9021 2736 c-7 -8 -11 -29 -9 -47 3 -30 7 -33 55 -44 89 -20 83 7 83
-380 0 -273 -3 -345 -13 -354 -8 -6 -38 -14 -68 -18 -52 -8 -54 -9 -57 -41 -6
-61 -1 -62 228 -62 229 0 234 1 228 62 -3 31 -6 33 -54 43 -90 18 -84 -7 -84
374 0 191 4 342 10 351 5 8 35 20 67 25 56 10 58 12 61 43 6 61 1 62 -228 62
-168 0 -210 -3 -219 -14z"/>
<path d="M11362 2738 c-13 -13 -16 -57 -4 -74 4 -6 23 -15 42 -19 76 -16 71
15 68 -383 l-3 -357 -50 -9 c-27 -6 -53 -15 -57 -20 -15 -22 -8 -65 11 -76 30
-16 716 -14 729 3 12 14 36 283 27 298 -4 5 -24 9 -45 9 -39 0 -39 -1 -80 -79
-63 -121 -70 -125 -203 -129 -97 -3 -112 -2 -124 14 -19 25 -19 697 0 712 6 5
32 13 57 17 25 4 48 13 52 19 12 17 9 61 -4 74 -17 17 -399 17 -416 0z"/>
<path d="M12531 2736 c-7 -8 -11 -29 -9 -47 3 -30 7 -33 53 -44 28 -6 56 -15
63 -19 18 -11 17 -699 -1 -714 -7 -6 -35 -15 -62 -19 -47 -8 -50 -10 -53 -41
-6 -64 -18 -62 397 -62 207 0 382 4 388 8 13 8 39 285 28 302 -3 6 -23 10 -44
10 -37 0 -38 -1 -79 -83 -60 -122 -60 -121 -211 -125 -170 -5 -161 -15 -161
185 l0 156 68 -6 c55 -5 71 -11 89 -32 13 -14 25 -38 29 -53 13 -61 22 -72 58
-72 37 0 52 17 50 55 -1 11 -2 93 -3 182 l-1 163 -24 6 c-45 11 -64 -3 -81
-61 -20 -70 -42 -85 -122 -85 l-63 0 0 150 0 150 114 0 c108 0 116 -1 145 -25
16 -14 42 -51 57 -81 27 -55 27 -55 68 -52 l41 3 3 124 c2 93 -1 126 -10 133
-7 4 -171 8 -364 8 -293 0 -354 -2 -363 -14z"/>
<path d="M13381 2736 c-7 -8 -11 -29 -9 -46 3 -28 8 -33 58 -50 30 -10 65 -30
77 -45 23 -26 23 -29 23 -334 0 -249 -3 -311 -14 -327 -8 -10 -38 -26 -68 -34
-51 -15 -53 -17 -56 -54 -2 -24 2 -42 10 -47 7 -5 97 -9 199 -9 206 0 213 2
207 61 -3 31 -7 34 -58 47 -98 24 -95 14 -98 310 -2 151 0 253 6 247 5 -5 111
-149 237 -320 125 -170 236 -319 246 -329 19 -20 63 -27 91 -14 16 8 17 43 20
408 3 450 -2 422 84 444 l49 12 0 45 0 44 -200 0 -200 0 0 -44 c0 -45 0 -45
45 -56 69 -18 89 -32 95 -68 8 -48 11 -447 3 -447 -3 0 -106 136 -229 303
-122 166 -227 305 -233 309 -6 4 -70 8 -142 8 -102 0 -134 -3 -143 -14z"/>
<path d="M15432 2738 c-13 -13 -16 -57 -4 -74 4 -6 25 -14 47 -18 22 -4 50
-14 63 -22 l22 -14 0 -344 c0 -276 -3 -346 -14 -355 -7 -6 -35 -14 -62 -18
-27 -3 -52 -11 -56 -17 -12 -17 -9 -61 4 -74 14 -14 414 -17 436 -3 8 5 12 22
10 46 -3 37 -5 39 -53 50 -28 6 -56 15 -63 19 -9 5 -12 94 -12 361 l0 354 38
10 c20 5 48 11 62 13 21 3 25 9 28 42 2 24 -2 42 -10 47 -22 14 -422 11 -436
-3z"/>
<path d="M15940 2731 c-14 -26 -13 -56 3 -69 6 -5 30 -15 53 -21 58 -16 91
-50 99 -103 4 -24 5 -167 3 -316 -3 -310 -1 -302 -94 -326 -45 -11 -49 -15
-52 -45 -6 -59 1 -61 203 -61 101 0 190 3 199 6 20 8 22 82 4 89 -7 2 -32 9
-56 15 -89 23 -95 47 -90 359 l3 205 249 -337 c137 -185 254 -338 260 -340 6
-2 28 -2 49 1 l37 4 0 372 c0 345 6 436 27 457 4 4 33 14 63 22 51 13 55 16
58 46 6 59 -1 61 -207 61 -102 0 -192 -4 -199 -9 -8 -5 -12 -23 -10 -47 3 -38
4 -38 61 -52 91 -22 91 -24 95 -297 3 -199 1 -228 -11 -215 -8 8 -114 151
-236 318 l-223 302 -138 0 c-127 0 -140 -2 -150 -19z"/>
<path d="M17021 2736 c-7 -8 -11 -29 -9 -47 3 -30 7 -33 58 -46 30 -7 58 -19
62 -26 4 -7 8 -166 8 -354 0 -263 -3 -344 -12 -350 -7 -4 -35 -13 -63 -18 -47
-10 -50 -12 -53 -43 -6 -64 -18 -62 398 -62 290 0 380 3 388 13 11 13 33 272
25 294 -3 8 -21 13 -43 13 -37 0 -39 -1 -74 -72 -20 -40 -47 -86 -60 -103
l-24 -30 -125 -3 c-177 -5 -167 -17 -167 180 l0 161 68 -7 c78 -7 108 -32 118
-96 8 -49 23 -62 66 -58 l33 3 3 197 2 198 -26 6 c-43 11 -70 -9 -78 -56 -4
-24 -17 -52 -31 -66 -21 -20 -34 -24 -90 -24 l-65 0 0 150 0 150 116 0 117 0
32 -34 c17 -19 42 -55 54 -81 21 -45 22 -46 64 -43 l42 3 3 119 c2 78 -1 123
-9 132 -17 21 -711 21 -728 0z"/>
<path d="M17912 2741 c-8 -5 -12 -22 -10 -46 3 -37 5 -39 51 -51 82 -21 77 4
77 -373 0 -193 -4 -342 -10 -351 -5 -8 -33 -20 -62 -25 -52 -10 -53 -11 -56
-49 -2 -24 2 -42 10 -47 7 -5 182 -9 389 -9 289 0 379 3 387 13 9 11 31 276
24 297 -2 6 -21 10 -42 10 -39 0 -39 0 -86 -91 -58 -113 -70 -119 -222 -119
-153 0 -147 -8 -147 182 l0 153 70 -3 c60 -2 73 -6 92 -27 11 -13 24 -42 28
-64 8 -49 24 -63 67 -59 l33 3 3 194 c3 209 2 211 -49 211 -32 0 -42 -12 -58
-68 -19 -69 -39 -82 -121 -82 l-70 0 0 150 0 150 121 0 121 0 30 -32 c16 -17
41 -54 54 -80 24 -48 26 -49 67 -46 l42 3 3 119 c2 78 -1 123 -9 132 -9 11
-75 14 -363 14 -193 0 -357 -4 -364 -9z"/>
<path d="M18803 2739 c-7 -7 -13 -25 -13 -40 0 -34 14 -45 70 -56 42 -8 45
-11 52 -48 9 -51 8 -632 -1 -665 -6 -20 -16 -27 -56 -34 -54 -11 -65 -19 -65
-53 0 -49 17 -53 224 -53 205 0 216 3 216 50 0 37 -10 46 -60 54 -70 11 -70
12 -70 167 l0 139 29 0 c32 0 74 -51 215 -260 43 -63 84 -123 92 -132 12 -15
32 -18 136 -18 68 0 129 4 136 9 8 5 12 23 10 47 -3 36 -6 39 -42 46 -67 14
-95 40 -205 188 -60 80 -111 150 -115 157 -4 8 9 20 36 34 118 59 173 165 147
287 -9 47 -20 65 -58 103 -73 74 -109 82 -411 86 -198 4 -258 2 -267 -8z m464
-116 c60 -28 88 -116 62 -194 -25 -75 -92 -119 -179 -119 l-50 0 0 165 0 165
66 0 c41 0 79 -6 101 -17z"/>
<path d="M19742 2738 c-13 -13 -16 -57 -4 -74 4 -6 24 -14 45 -18 22 -4 50
-12 63 -18 l24 -11 0 -347 c0 -280 -3 -350 -14 -359 -7 -6 -35 -14 -62 -18
-27 -3 -52 -11 -56 -17 -12 -17 -9 -61 4 -74 14 -14 414 -17 436 -3 8 5 12 22
10 46 -3 37 -5 39 -53 50 -28 6 -56 15 -63 19 -9 5 -12 94 -12 361 l0 354 38
10 c20 5 48 11 62 13 21 3 25 9 28 42 2 24 -2 42 -10 47 -22 14 -422 11 -436
-3z"/>
<path d="M20252 2738 c-16 -16 -15 -63 1 -75 6 -6 30 -16 52 -23 62 -20 84
-39 96 -83 7 -27 10 -139 7 -324 -3 -322 0 -309 -93 -336 -45 -13 -50 -17 -53
-46 -6 -59 1 -61 207 -61 102 0 192 4 199 9 8 5 12 22 10 46 -3 37 -5 39 -48
50 -108 28 -111 37 -108 341 l3 228 70 -95 c205 -278 418 -565 425 -572 7 -8
42 -11 83 -8 16 1 17 26 17 374 0 204 5 390 10 412 11 47 28 61 83 71 23 3 45
12 49 18 12 17 9 61 -4 74 -14 14 -375 17 -396 3 -8 -5 -12 -23 -10 -47 3 -38
4 -38 61 -52 89 -22 91 -28 95 -262 6 -307 34 -314 -236 53 l-234 317 -137 0
c-93 0 -141 -4 -149 -12z"/>
<path d="M24882 2738 c-25 -25 -11 -88 19 -88 11 0 35 -6 54 -14 l34 -15 3
-318 c3 -360 3 -360 89 -437 53 -49 106 -72 198 -87 171 -28 340 49 402 185
16 36 19 68 19 271 1 238 10 369 28 387 6 6 34 16 64 22 52 12 53 13 56 51 2
24 -2 41 -10 46 -7 5 -97 9 -199 9 -206 0 -213 -2 -207 -61 3 -31 6 -33 58
-45 63 -14 86 -37 95 -97 4 -23 5 -150 3 -283 l-3 -241 -28 -42 c-41 -62 -97
-84 -198 -79 -87 4 -119 20 -154 79 -19 32 -20 55 -23 335 -2 238 0 303 10
311 7 6 33 15 58 20 41 8 45 11 48 41 6 60 0 62 -212 62 -136 0 -196 -4 -204
-12z"/>
<path d="M25872 2742 c-9 -7 -12 -43 -10 -148 l3 -139 37 -3 c37 -3 38 -2 72
65 47 95 76 123 123 123 21 0 48 3 61 6 l22 6 0 -365 c0 -282 -3 -368 -12
-374 -7 -4 -38 -12 -68 -18 -55 -10 -55 -10 -58 -49 -2 -24 2 -42 10 -47 17
-11 429 -11 446 0 8 5 12 23 10 47 -3 39 -3 39 -63 52 -33 7 -63 18 -67 25 -4
7 -8 173 -8 371 l0 358 23 -6 c12 -3 39 -6 60 -6 49 0 88 -39 129 -128 28 -62
29 -63 66 -60 l37 3 0 145 0 145 -400 2 c-220 2 -406 -1 -413 -5z"/>
<path d="M27742 2738 c-13 -13 -16 -57 -4 -74 4 -6 26 -15 48 -18 25 -5 51
-18 65 -32 23 -25 24 -31 28 -242 4 -271 -5 -415 -27 -443 -10 -11 -39 -26
-67 -33 -48 -12 -50 -14 -53 -51 -2 -24 2 -41 10 -46 17 -11 369 -11 386 0 8
5 12 23 10 47 -3 37 -5 39 -58 54 -88 25 -91 35 -88 334 l3 247 114 -308 c141
-381 133 -365 174 -361 l32 3 125 311 c69 171 130 321 137 335 9 19 12 -32 12
-251 0 -151 -3 -281 -8 -289 -5 -8 -35 -19 -68 -26 -58 -11 -58 -12 -61 -50
-2 -24 2 -41 10 -46 22 -14 412 -11 426 3 13 13 16 57 4 74 -4 6 -26 15 -50
19 -75 12 -72 -4 -72 379 0 263 3 346 13 354 6 5 32 14 57 19 l45 9 0 44 0 45
-145 3 c-180 3 -186 2 -195 -44 -3 -20 -54 -161 -113 -312 -90 -233 -108 -272
-116 -251 -4 13 -58 155 -120 314 l-111 290 -165 3 c-120 2 -169 -1 -178 -10z"/>
<path d="M29872 2738 c-13 -13 -18 -242 -6 -272 4 -11 19 -16 44 -16 36 0 38
2 73 73 49 98 68 114 142 119 l60 3 3 -359 c1 -241 -1 -363 -8 -370 -6 -6 -39
-15 -73 -21 -61 -10 -62 -11 -65 -43 -6 -61 -2 -62 238 -62 240 0 244 1 238
61 -3 31 -6 33 -66 47 -50 11 -65 18 -72 37 -5 12 -8 177 -7 366 l2 344 60 -3
c73 -4 100 -26 149 -123 32 -62 34 -64 72 -64 l39 0 3 134 c2 90 -1 138 -9
147 -16 19 -798 21 -817 2z"/>
<path d="M30754 2736 c-3 -8 -4 -29 -2 -47 3 -31 6 -33 63 -48 l60 -16 0 -360
0 -360 -60 -10 -60 -10 -3 -39 c-2 -24 2 -42 10 -47 17 -11 409 -11 426 0 8 5
12 22 10 46 -3 37 -5 39 -53 50 -28 6 -56 15 -63 19 -18 11 -17 699 1 714 7 6
35 15 62 19 l50 8 0 45 0 45 -218 3 c-181 2 -218 0 -223 -12z"/>
<path d="M32272 2738 c-13 -13 -16 -57 -4 -74 4 -6 28 -16 54 -24 62 -17 95
-50 104 -105 3 -24 4 -162 2 -307 -4 -307 -3 -306 -90 -330 -51 -14 -53 -16
-56 -53 -2 -24 2 -41 10 -46 7 -5 97 -9 199 -9 206 0 213 2 207 61 -3 30 -7
34 -48 44 -108 28 -111 37 -108 341 l3 226 249 -336 c136 -185 253 -336 260
-337 41 -4 53 -3 69 4 16 7 17 35 17 375 0 202 5 385 10 407 11 47 28 61 83
71 23 3 45 12 49 18 12 17 9 61 -4 74 -14 14 -375 17 -396 3 -8 -5 -12 -23
-10 -47 3 -38 4 -38 61 -52 89 -22 91 -27 95 -266 2 -111 2 -214 1 -231 -4
-27 -27 2 -238 288 l-233 317 -137 0 c-93 0 -141 -4 -149 -12z"/>
<path d="M33640 2731 c-23 -44 -9 -73 41 -84 63 -15 65 -20 184 -444 62 -221
116 -407 120 -412 9 -15 81 -14 92 2 5 6 54 143 108 302 54 160 101 296 105
304 5 9 47 -104 111 -300 l104 -314 41 -3 c25 -2 45 2 52 10 5 7 65 191 132
408 66 217 128 403 137 412 9 10 35 24 57 30 23 7 44 17 48 23 12 16 9 60 -4
73 -14 14 -335 17 -356 3 -8 -5 -12 -22 -10 -46 3 -38 4 -39 56 -50 29 -7 56
-15 59 -19 4 -4 2 -32 -5 -64 -20 -94 -115 -432 -121 -432 -4 0 -51 135 -106
300 l-100 300 -51 0 -51 0 -99 -295 c-54 -162 -102 -291 -105 -287 -7 7 -139
465 -139 481 0 5 24 13 53 18 l52 8 0 45 0 45 -197 3 c-187 2 -198 1 -208 -17z"/>
<path d="M36023 2739 c-24 -25 -13 -89 16 -89 9 0 33 -5 54 -11 l37 -10 -2
-362 -3 -362 -50 -9 c-27 -6 -53 -15 -57 -20 -12 -17 -9 -61 4 -74 15 -15 380
-17 409 -2 19 11 26 54 11 76 -4 6 -29 15 -57 19 -27 4 -53 12 -57 18 -4 7 -8
74 -8 150 l0 137 28 0 c24 0 38 -14 93 -87 36 -49 98 -137 139 -198 40 -60 78
-113 84 -117 15 -11 248 -10 264 1 8 5 12 23 10 47 -3 36 -6 39 -42 46 -22 5
-54 18 -72 29 -29 18 -254 307 -254 327 0 4 15 13 34 20 50 18 121 86 140 134
24 59 22 156 -3 206 -27 52 -84 98 -146 119 -67 22 -553 32 -572 12z m487
-134 c73 -70 58 -202 -33 -269 -19 -14 -47 -21 -92 -24 l-65 -4 0 167 0 167
79 -3 c72 -4 83 -7 111 -34z"/>
<path d="M36974 2736 c-3 -8 -4 -28 -2 -46 3 -29 8 -34 53 -48 l50 -17 0 -360
0 -360 -50 -10 c-49 -11 -50 -12 -53 -49 -2 -24 2 -42 10 -47 7 -5 96 -9 198
-9 102 0 191 4 198 9 8 5 12 22 10 46 -3 37 -5 39 -52 51 -27 7 -53 19 -57 26
-5 7 -9 76 -8 153 l0 140 35 -40 c78 -89 196 -239 244 -310 l51 -75 132 0 c90
0 137 4 145 12 16 16 15 78 0 82 -7 2 -32 9 -55 15 -59 16 -89 44 -223 210
-65 80 -132 162 -148 182 l-31 36 60 59 c33 32 94 98 136 146 79 90 98 103
173 116 42 7 45 10 48 40 6 59 -2 62 -192 62 -94 0 -177 -4 -184 -9 -8 -5 -12
-23 -10 -47 3 -36 5 -39 41 -45 20 -3 40 -9 43 -12 13 -12 -43 -85 -145 -189
-57 -60 -108 -108 -113 -108 -14 0 -10 276 5 288 6 5 32 14 57 19 l45 9 0 44
0 45 -203 3 c-168 2 -203 0 -208 -12z"/>
</g>
</svg>
