<?xml version="1.0" encoding="UTF-8"?>
<svg version="1.1" xmlns="http://www.w3.org/2000/svg" width="512" height="512">
<path d="M0 0 C1.49280683 -0.00302218 2.98561211 -0.00691199 4.47841465 -0.01159257 C8.57262017 -0.0218728 12.66673811 -0.01969068 16.7609508 -0.01541197 C21.17959204 -0.0129448 25.59821219 -0.02195881 30.0168457 -0.02944946 C38.67039925 -0.04219874 47.32392178 -0.04398987 55.97748314 -0.0416492 C63.01147263 -0.03986613 70.0454527 -0.04161545 77.07944107 -0.04587364 C78.0805749 -0.04646883 79.08170874 -0.04706402 80.11317996 -0.04767724 C82.14699164 -0.048889 84.18080332 -0.05010313 86.214615 -0.05131962 C105.287783 -0.06219605 124.36093332 -0.06003218 143.43410231 -0.05393478 C160.8807544 -0.04876558 178.32735065 -0.06002095 195.77399169 -0.07903299 C213.69060866 -0.09840743 231.60719921 -0.10666808 249.52382672 -0.10290974 C259.58167745 -0.10099709 269.63948066 -0.10349148 279.69732285 -0.11762428 C288.25970881 -0.12953402 296.82201799 -0.13094753 305.384405 -0.11883412 C309.75209325 -0.11294257 314.11964103 -0.11185362 318.48731995 -0.12383652 C322.48821593 -0.13468548 326.48885401 -0.13160377 330.48973788 -0.11757483 C331.93449739 -0.11492518 333.37927705 -0.11730289 334.82401679 -0.1253107 C344.1921678 -0.17361799 353.86264063 -0.17971395 361.1242981 6.63569641 C366.28778705 12.84382186 368.34509034 19.26041372 367.9524231 27.29975891 C366.70114599 35.07408719 363.12335427 40.48940041 356.83132935 45.10444641 C348.90125328 48.99715373 340.54078503 48.54629067 331.91412354 48.52139282 C330.42941594 48.52441591 328.9447099 48.52830618 327.46000659 48.53298539 C323.39279397 48.54325386 319.32566962 48.54108651 315.25844979 48.5368048 C310.86707376 48.53433549 306.47571886 48.54335428 302.08435059 48.55084229 C293.48607814 48.56358557 284.88783693 48.56538344 276.28955664 48.56304202 C269.29993603 48.5612583 262.31032489 48.56300966 255.32070541 48.56726646 C254.32554652 48.56786165 253.33038762 48.56845684 252.30507239 48.56907007 C250.28334197 48.57028183 248.26161156 48.57149596 246.23988114 48.57271244 C227.28399407 48.58358654 208.32812479 48.5814261 189.37223671 48.5753276 C172.03625458 48.57015848 154.70032863 48.581414 137.36435761 48.60042582 C119.55731532 48.61980432 101.75029962 48.6280602 83.94324672 48.62430257 C73.9485361 48.62239055 63.95387331 48.62487813 53.9591713 48.63901711 C45.45063678 48.65093201 36.94217953 48.65233454 28.43364395 48.64022694 C24.09417827 48.63433906 19.75485391 48.63323631 15.41539764 48.64522934 C11.43916107 48.65609066 7.46318378 48.6529819 3.48695932 48.63896766 C2.05230605 48.63632141 0.61763245 48.63868499 -0.81700085 48.64670352 C-10.26771271 48.69583906 -18.66079018 48.28881951 -26.8366394 43.19819641 C-31.97703215 37.57962759 -34.79330218 31.9408498 -35.1491394 24.26069641 C-34.80489198 17.21268328 -32.66944705 11.43232462 -27.6569519 6.37788391 C-19.19896044 -0.43458392 -10.43619455 -0.02987058 0 0 Z " fill="#000000" transform="translate(89.52413940429688,231.7393035888672)"/>
<path d="M0 0 C1.28691122 -0.00644889 2.57382245 -0.01289778 3.89973098 -0.0195421 C5.32584027 -0.01659989 6.75194918 -0.01346445 8.17805767 -0.01015663 C9.69460024 -0.01389308 11.21114089 -0.01849458 12.72767848 -0.02388728 C16.89673805 -0.03613339 21.06571747 -0.03585492 25.23479092 -0.03349853 C29.73047985 -0.03309077 34.22614295 -0.0441256 38.72181988 -0.05361366 C47.53038408 -0.07023347 56.33892151 -0.07572365 65.14750008 -0.07683842 C72.30692777 -0.07778843 79.46634662 -0.08189636 86.62577152 -0.08823967 C106.91992041 -0.10585475 127.21404814 -0.11507812 147.50820474 -0.11357872 C148.6024903 -0.11349881 149.69677587 -0.1134189 150.82422161 -0.11333656 C151.91984186 -0.1132548 153.0154621 -0.11317304 154.14428296 -0.1130888 C171.90214518 -0.11227582 189.6599226 -0.13141576 207.41776029 -0.1596133 C225.64732331 -0.18833168 243.87684496 -0.20215417 262.10643119 -0.20042574 C272.34259095 -0.19976148 282.57866181 -0.20526966 292.81480122 -0.22678185 C301.52989133 -0.24497988 310.24485224 -0.24935231 318.95995311 -0.235763 C323.4065295 -0.22922639 327.85285792 -0.22914109 332.29941082 -0.2464695 C336.37132919 -0.26217474 340.44280245 -0.25936287 344.51470979 -0.24190123 C345.98643111 -0.2388257 347.45818544 -0.24248462 348.92986784 -0.25362138 C358.11538184 -0.31851857 364.76009498 -0.03647579 371.90210247 6.22211266 C372.4409306 6.87308922 372.97975872 7.52406578 373.53491497 8.19476891 C374.08921185 8.84316734 374.64350872 9.49156578 375.21460247 10.15961266 C379.51946188 16.40747618 379.35431903 22.91261055 378.65991497 30.25726891 C376.95099964 36.84416408 372.24801205 41.5782726 366.65991497 45.25726891 C362.38049463 46.93790032 358.81570807 47.50869039 354.23081017 47.51453781 C352.30883199 47.52421115 352.30883199 47.52421115 350.34802598 47.53407991 C348.93340846 47.53113788 347.51879133 47.52800247 346.10417461 47.52469444 C344.59573127 47.52843199 343.08728986 47.53303392 341.57885152 47.53842509 C337.43678488 47.5506576 333.294799 47.55039433 329.15271842 47.54803634 C324.68429468 47.54762824 320.21589684 47.55866667 315.74748516 47.56815147 C306.99420209 47.5847637 298.24094596 47.59026112 289.48764845 47.59137623 C282.37258964 47.59232658 275.25753971 47.59643619 268.14248371 47.60277748 C247.96998366 47.62039031 227.79750489 47.62961626 207.6249971 47.62811653 C206.53751365 47.62803662 205.4500302 47.62795671 204.3295927 47.62787437 C203.2407815 47.62779261 202.1519703 47.62771085 201.03016482 47.62762661 C183.38297245 47.62681365 165.73586543 47.64595389 148.08869775 47.67415111 C129.96870941 47.70287537 111.8487627 47.71669166 93.728751 47.71496356 C83.55573124 47.71429951 73.38280094 47.71979832 63.20980167 47.74131966 C54.54856292 47.75952539 45.88745419 47.76388375 37.2262046 47.75030081 C32.8078505 47.74376817 28.38974592 47.74366462 23.97141552 47.76100731 C19.92415624 47.77672999 15.87734447 47.77388282 11.83009616 47.75643905 C10.36848107 47.75336737 8.90683264 47.75700793 7.44525685 47.7681592 C-1.77749447 47.83384705 -9.40948391 47.39765683 -16.67992878 41.29242516 C-17.20715534 40.64144859 -17.7343819 39.99047203 -18.27758503 39.31976891 C-19.09549519 38.34717125 -19.09549519 38.34717125 -19.92992878 37.35492516 C-24.16149381 31.06032565 -24.03580322 24.61582669 -23.34008503 17.25726891 C-21.6142886 10.60530671 -16.88390953 6.07703625 -11.34008503 2.25726891 C-7.43525379 0.38028433 -4.31510424 0.00546869 0 0 Z " fill="#000000" transform="translate(78.34008502960205,379.74273109436035)"/>
<path d="M0 0 C1.28131878 -0.00644889 2.56263756 -0.01289778 3.88278419 -0.0195421 C5.29740171 -0.01660007 6.71201884 -0.01346466 8.12663555 -0.01015663 C9.6350789 -0.01389418 11.1435203 -0.01849611 12.65195864 -0.02388728 C16.79402528 -0.03611979 20.93601116 -0.03585652 25.07809174 -0.03349853 C29.54651549 -0.03309042 34.01491333 -0.04412885 38.483325 -0.05361366 C47.23660807 -0.07022589 55.9898642 -0.07572331 64.74316172 -0.07683842 C71.85822053 -0.07778876 78.97327045 -0.08189838 86.08832645 -0.08823967 C106.2608265 -0.1058525 126.43330527 -0.11507845 146.60581306 -0.11357872 C147.69329651 -0.11349881 148.78077997 -0.1134189 149.90121746 -0.11333656 C150.99002866 -0.1132548 152.07883987 -0.11317304 153.20064535 -0.1130888 C170.84783771 -0.11227584 188.49494473 -0.13141607 206.14211241 -0.1596133 C224.26210075 -0.18833756 242.38204747 -0.20215385 260.50205916 -0.20042574 C270.67507893 -0.1997617 280.84800923 -0.20526051 291.02100849 -0.22678185 C299.68224725 -0.24498758 308.34335597 -0.24934594 317.00460557 -0.235763 C321.42295966 -0.22923036 325.84106425 -0.22912681 330.25939465 -0.2464695 C334.30665392 -0.26219218 338.35346569 -0.25934501 342.400714 -0.24190123 C343.8623291 -0.23882956 345.32397753 -0.24247012 346.78555331 -0.25362138 C356.00830463 -0.31930924 363.64029407 0.11688098 370.91073895 6.22211266 C371.43796551 6.87308922 371.96519207 7.52406578 372.5083952 8.19476891 C373.32630535 9.16736656 373.32630535 9.16736656 374.16073895 10.15961266 C378.39230398 16.45421216 378.26661339 22.89871113 377.5708952 30.25726891 C375.86197986 36.84416408 371.15899228 41.5782726 365.5708952 45.25726891 C361.28890569 46.9393973 357.72399723 47.50814821 353.13620377 47.5117445 C351.2123755 47.52049279 351.2123755 47.52049279 349.24968201 47.52941781 C347.83368638 47.52578493 346.41769124 47.52196058 345.00169659 47.51796532 C343.49182825 47.52098656 341.98196144 47.5248759 340.47209734 47.52955788 C336.32616533 47.53985009 332.18031968 47.53765296 328.03438056 47.53337729 C323.56190819 47.5309123 319.08945673 47.53992137 314.616992 47.54741478 C305.85635544 47.56016989 297.09574952 47.56195448 288.33510525 47.55961452 C281.21526232 47.55783219 274.0954287 47.55957915 266.97558689 47.56383896 C265.96263868 47.56443415 264.94969046 47.56502934 263.90604685 47.56564256 C261.84831417 47.5668543 259.79058149 47.56806843 257.73284882 47.56928494 C238.43179105 47.5801635 219.13075075 47.57799642 199.829692 47.57190009 C182.16823011 47.56673 164.50682336 47.57798825 146.84537239 47.59699831 C128.71409444 47.61636461 110.5828426 47.62463488 92.45155424 47.62087506 C82.27079163 47.61896126 72.09007597 47.621468 61.90932178 47.6355896 C53.24291694 47.64748894 44.57658793 47.64892452 35.91018207 47.63679943 C31.48806698 47.63090072 27.06609072 47.62983868 22.64398479 47.64180183 C18.59566026 47.6526266 14.54759102 47.64959806 10.4992786 47.63554015 C9.03500944 47.63288382 7.57072049 47.63528908 6.10647071 47.64327601 C-4.8279821 47.69877819 -11.54400758 46.73811553 -19.6947298 39.12445641 C-24.87483307 33.54767857 -24.9791058 27.74830377 -24.76894855 20.40961266 C-23.94875976 12.80165451 -20.26049824 8.60848182 -14.6244173 3.70258141 C-10.00140183 0.65895911 -5.44683964 0.00694671 0 0 Z " fill="#000000" transform="translate(79.42910480499268,84.74273109436035)"/>
</svg>
